<?xml version="1.0" standalone="no"?>
<!DOCTYPE svg PUBLIC "-//W3C//DTD SVG 20010904//EN"
 "http://www.w3.org/TR/2001/REC-SVG-20010904/DTD/svg10.dtd">
<svg version="1.0" xmlns="http://www.w3.org/2000/svg"
 width="1063.000000pt" height="1280.000000pt" viewBox="0 0 1063.000000 1280.000000"
 preserveAspectRatio="xMidYMid meet">
<g transform="translate(0.000000,1280.000000) scale(0.100000,-0.100000)"
fill="#000000" stroke="none">
<path d="M6650 12620 c-159 -79 -400 -139 -650 -160 -74 -6 -184 -15 -245 -21
-60 -5 -274 -11 -475 -14 -299 -4 -380 -2 -450 10 -47 8 -141 18 -210 21 -139
7 -580 78 -650 105 -21 8 -42 2 -118 -30 -50 -22 -125 -49 -165 -59 -54 -14
-88 -31 -134 -66 -34 -26 -86 -55 -115 -65 -29 -11 -253 -120 -498 -243 -467
-235 -487 -247 -985 -587 -144 -98 -383 -285 -505 -395 -39 -34 -116 -115
-173 -179 -80 -90 -110 -132 -131 -184 -42 -102 -683 -2314 -770 -2658 -67
-262 -84 -314 -131 -410 -43 -87 -56 -126 -63 -186 -7 -55 -17 -87 -37 -117
-31 -47 -25 -65 23 -77 14 -3 162 -58 327 -122 850 -326 1121 -418 1474 -499
107 -24 203 -46 212 -49 11 -4 31 6 53 26 30 26 36 38 36 70 0 31 15 66 66
154 36 63 70 118 76 121 18 11 28 -11 32 -71 2 -33 4 -67 5 -76 0 -9 9 -19 19
-21 16 -4 20 -19 25 -84 4 -44 32 -254 62 -469 l54 -389 -24 -166 c-15 -101
-42 -225 -69 -320 -41 -142 -45 -168 -51 -310 -7 -153 -24 -260 -81 -500 -38
-162 -76 -633 -63 -790 11 -136 15 -120 -96 -360 -37 -80 -103 -246 -147 -370
l-80 -225 -19 -240 c-17 -211 -20 -326 -18 -955 1 -713 1 -715 -23 -863 -16
-95 -30 -152 -39 -157 -11 -7 -11 -15 -3 -38 18 -48 205 -303 236 -322 15 -9
58 -22 96 -28 101 -17 1195 -37 1862 -34 525 3 629 6 1015 33 880 60 989 70
1375 119 475 60 819 102 1075 129 124 14 323 47 570 96 388 76 553 118 562
142 3 8 -6 39 -20 71 -14 31 -29 78 -32 105 -5 29 -18 61 -36 84 -16 20 -32
48 -35 62 -3 14 -17 67 -30 116 -28 103 -48 199 -62 300 -6 39 -24 147 -40
240 -17 94 -40 226 -51 295 -12 69 -26 148 -32 175 -5 28 -14 86 -19 130 -10
90 -42 282 -70 425 -20 103 -33 136 -86 220 -55 87 -59 112 -44 258 14 141 12
180 -18 397 -12 83 -25 186 -30 230 -5 44 -17 132 -26 195 -8 63 -23 183 -32
265 -9 83 -20 182 -25 220 -10 91 -10 291 1 430 43 554 78 1325 89 1940 6 371
6 380 26 380 13 0 26 -12 37 -35 42 -83 78 -171 78 -187 0 -33 47 -189 65
-219 34 -53 36 -54 225 -54 l177 0 224 69 c181 55 258 85 404 156 99 47 293
138 430 202 138 63 259 123 270 133 11 9 96 59 188 110 210 116 211 117 173
241 -14 47 -26 101 -26 121 0 24 -9 47 -30 73 -16 20 -39 69 -51 109 -11 39
-29 100 -40 136 -10 36 -37 128 -59 205 -22 77 -47 163 -55 190 -21 72 -133
456 -161 550 -71 246 -88 307 -109 375 -12 41 -37 129 -55 195 -34 122 -135
477 -170 595 -10 36 -31 106 -46 155 -14 50 -32 139 -40 199 -18 144 -49 209
-222 468 -91 136 -225 261 -372 348 -30 18 -152 82 -270 142 -207 105 -572
303 -736 399 -44 25 -241 135 -439 244 -311 172 -370 208 -431 265 -53 50 -82
70 -117 78 -28 8 -76 35 -125 72 -44 33 -82 60 -84 59 -1 -1 -46 -23 -98 -49z"/>
</g>
</svg>
